# xmcd CD database file
#
# Track frame offsets:
#	150
#	33500
#	79095
#	102552
#	132387
#	172035
#	205722
#	255750
#	275232
#
# Disc length: 4229 seconds
#
# Revision: 1
# Processed by: cddbd v1.5.2PL0 Copyright (c) Steve Scherf et al.
# Submitted via: CDex 1.51
#
DISCID=7d108309
DTITLE=Cecil Taylor - Vol. 182 - Cecil Taylor 1955-1961
DYEAR=1994
DGENRE=Jazz
TTITLE0=Bemsha Swing
TTITLE1=Things Ain't What They Used To Be
TTITLE2=Cindy's Main Mood
TTITLE3=Sweet And Lovely
TTITLE4=Air
TTITLE5=Azure
TTITLE6=Charge 'Em Blues
TTITLE7=Port Of Call
TTITLE8=You'd Be So Nice To Come Home To
EXTD=YEAR: 1994
EXTT0=
EXTT1=
EXTT2=
EXTT3=
EXTT4=
EXTT5=
EXTT6=
EXTT7=
EXTT8=
PLAYORDER=
